<svg width="196" height="196" viewBox="0 0 196 196" fill="none" xmlns="http://www.w3.org/2000/svg">
<g clip-path="url(#clip0_2003_920)">
<path fill-rule="evenodd" clip-rule="evenodd" d="M38.6493 80.5322C38.3379 79.0912 38.7796 77.5906 39.8221 76.5482L44.969 71.4013C45.0282 71.342 45.0892 71.2845 45.1518 71.2287C45.8848 70.5761 46.751 70.0905 47.6902 69.8056C48.5936 69.5316 49.5439 69.4495 50.4801 69.5642L103.583 74.7354L114.349 63.3912C115.095 62.5592 117.256 60.3638 117.862 59.758C122.325 55.2954 126.858 51.9574 131.094 50.31C135.299 48.6745 140.299 48.3899 143.957 52.0482C147.617 55.708 147.328 60.7191 145.699 64.9245C144.055 69.168 140.723 73.7063 136.269 78.1605C135.656 78.7728 133.475 80.9197 132.636 81.6732L121.288 92.4332L126.394 145.583C126.507 146.517 126.425 147.466 126.151 148.367C125.866 149.304 125.381 150.169 124.73 150.901C124.674 150.964 124.616 151.025 124.556 151.084L119.457 156.183C118.415 157.226 116.915 157.668 115.474 157.356C114.033 157.045 112.848 156.023 112.329 154.643L97.4467 115.085L78.5225 133.181L79.9556 148.12C79.9596 148.154 79.9639 148.19 79.9684 148.228C80.0575 148.971 80.2313 150.419 79.7457 151.904C79.2191 153.513 78.1161 154.65 77.348 155.418L73.918 158.848C73.5414 159.224 71.5672 161.108 68.8031 160.071C67.7037 159.658 67.047 158.94 66.7462 158.565C66.4535 158.201 66.2506 157.847 66.1382 157.64L56.3315 140.246C56.2593 140.118 56.1936 139.986 56.1348 139.851C56.1273 139.834 56.1137 139.821 56.0966 139.813C55.9605 139.754 55.8275 139.687 55.6982 139.614L38.255 129.756L38.2469 129.751C38.104 129.675 37.1808 129.184 36.5006 128.256C36.0497 127.641 35.5014 126.562 35.6258 125.151C35.748 123.765 36.4547 122.81 36.9759 122.289L40.5858 118.679C42.1842 117.08 44.8979 115.643 47.8646 115.996L62.5273 117.427L80.8697 98.5338L41.3626 83.6764C39.9827 83.1575 38.9607 81.9732 38.6493 80.5322ZM52.0818 78.4378L89.1895 92.3928C89.9824 92.686 90.6877 93.1765 91.2387 93.8184C91.8007 94.473 92.1827 95.2626 92.3473 96.1096C92.5119 96.9567 92.4533 97.8319 92.1774 98.6493C91.9261 99.3936 91.5025 100.067 90.9424 100.615L68.0697 124.174C67.3725 124.905 66.5147 125.465 65.5639 125.808C64.6222 126.148 63.6151 126.266 62.6208 126.154L47.0101 124.631C46.9804 124.643 46.9422 124.661 46.9079 124.68L59.8062 131.97C61.6387 132.836 63.114 134.311 63.9795 136.144L71.3238 149.171L71.3405 149.153C71.3376 149.128 71.3345 149.101 71.3313 149.073L71.322 148.992L69.7945 133.059C69.6884 132.071 69.8085 131.071 70.1462 130.135C70.4898 129.182 71.0495 128.322 71.7813 127.623L95.3974 105.04C95.9939 104.47 96.7217 104.053 97.5156 103.828C98.3093 103.602 99.1461 103.574 99.9533 103.745C100.761 103.917 101.514 104.283 102.147 104.811C102.781 105.34 103.276 106.015 103.59 106.778L103.637 106.899L117.502 143.751L112.489 91.5702C112.378 90.6409 112.583 89.9073 112.681 89.5965C112.82 89.1559 112.999 88.8047 113.127 88.5781C113.363 88.1584 113.688 87.7049 114.074 87.3186L114.156 87.237L126.713 75.3326L126.822 75.2332C127.374 74.7441 129.456 72.7026 130.133 72.0252C134.153 68.0058 136.573 64.463 137.608 61.79C138.658 59.079 137.977 58.3383 137.822 58.1834C137.666 58.027 136.935 57.3481 134.239 58.3966C131.573 59.4332 128.033 61.8574 123.997 65.8933C123.319 66.5722 121.263 68.6686 120.794 69.1993C120.76 69.2384 120.725 69.2768 120.689 69.3146L108.617 82.0355C108.037 82.6607 107.301 83.1219 106.484 83.3712C105.796 83.5812 105.072 83.6341 104.364 83.529L52.0818 78.4378ZM46.8266 124.611L46.866 124.615L46.8266 124.611Z" fill="#7D49F8"/>
</g>
<defs>
<clipPath id="clip0_2003_920">
<rect width="138.593" height="138.593" fill="white" transform="translate(0 98) rotate(-45)"/>
</clipPath>
</defs>
</svg>
