<svg width="206" height="206" viewBox="0 0 206 206" fill="none" xmlns="http://www.w3.org/2000/svg">
<path fill-rule="evenodd" clip-rule="evenodd" d="M41.8637 32.1942C36.5301 32.1942 32.2064 36.518 32.2064 41.8516C32.2064 47.1852 36.5301 51.5089 41.8637 51.5089C47.1973 51.5089 51.521 47.1852 51.521 41.8516C51.521 36.518 47.1973 32.1942 41.8637 32.1942ZM19.3098 41.8516C19.3098 29.3954 29.4075 19.2977 41.8637 19.2977C54.3198 19.2977 64.4175 29.3954 64.4175 41.8516C64.4175 54.3077 54.3198 64.4054 41.8637 64.4054C29.4075 64.4054 19.3098 54.3077 19.3098 41.8516ZM103.019 32.1942C97.6856 32.1942 93.3619 36.518 93.3619 41.8516C93.3619 47.1852 97.6856 51.5089 103.019 51.5089C108.353 51.5089 112.677 47.1852 112.677 41.8516C112.677 36.518 108.353 32.1942 103.019 32.1942ZM80.4653 41.8516C80.4653 29.3954 90.563 19.2977 103.019 19.2977C115.475 19.2977 125.573 29.3954 125.573 41.8516C125.573 54.3077 115.475 64.4054 103.019 64.4054C90.563 64.4054 80.4653 54.3077 80.4653 41.8516ZM164.175 32.1942C158.841 32.1942 154.517 36.518 154.517 41.8516C154.517 47.1852 158.841 51.5089 164.175 51.5089C169.508 51.5089 173.832 47.1852 173.832 41.8516C173.832 36.518 169.508 32.1942 164.175 32.1942ZM141.621 41.8516C141.621 29.3954 151.719 19.2977 164.175 19.2977C176.631 19.2977 186.729 29.3954 186.729 41.8516C186.729 54.3077 176.631 64.4054 164.175 64.4054C151.719 64.4054 141.621 54.3077 141.621 41.8516ZM41.8637 93.3572C36.5301 93.3572 32.2064 97.6809 32.2064 103.015C32.2064 108.348 36.5301 112.672 41.8637 112.672C47.1973 112.672 51.521 108.348 51.521 103.015C51.521 97.6809 47.1973 93.3572 41.8637 93.3572ZM19.3098 103.015C19.3098 90.5584 29.4075 80.4607 41.8637 80.4607C54.3198 80.4607 64.4175 90.5584 64.4175 103.015C64.4175 115.471 54.3198 125.568 41.8637 125.568C29.4075 125.568 19.3098 115.471 19.3098 103.015ZM103.019 93.3572C97.6856 93.3572 93.3619 97.6809 93.3619 103.015C93.3619 108.348 97.6856 112.672 103.019 112.672C108.353 112.672 112.677 108.348 112.677 103.015C112.677 97.6809 108.353 93.3572 103.019 93.3572ZM80.4653 103.015C80.4653 90.5584 90.563 80.4607 103.019 80.4607C115.475 80.4607 125.573 90.5584 125.573 103.015C125.573 115.471 115.475 125.568 103.019 125.568C90.563 125.568 80.4653 115.471 80.4653 103.015ZM164.175 93.3572C158.841 93.3572 154.517 97.6809 154.517 103.015C154.517 108.348 158.841 112.672 164.175 112.672C169.508 112.672 173.832 108.348 173.832 103.015C173.832 97.6809 169.508 93.3572 164.175 93.3572ZM141.621 103.015C141.621 90.5584 151.719 80.4607 164.175 80.4607C176.631 80.4607 186.729 90.5584 186.729 103.015C186.729 115.471 176.631 125.568 164.175 125.568C151.719 125.568 141.621 115.471 141.621 103.015ZM41.8637 154.511C36.5301 154.511 32.2064 158.835 32.2064 164.168C32.2064 169.502 36.5301 173.826 41.8637 173.826C47.1973 173.826 51.521 169.502 51.521 164.168C51.521 158.835 47.1973 154.511 41.8637 154.511ZM19.3098 164.168C19.3098 151.712 29.4075 141.615 41.8637 141.615C54.3198 141.615 64.4175 151.712 64.4175 164.168C64.4175 176.625 54.3198 186.722 41.8637 186.722C29.4075 186.722 19.3098 176.625 19.3098 164.168ZM103.019 154.511C97.6856 154.511 93.3619 158.835 93.3619 164.168C93.3619 169.502 97.6856 173.826 103.019 173.826C108.353 173.826 112.677 169.502 112.677 164.168C112.677 158.835 108.353 154.511 103.019 154.511ZM80.4653 164.168C80.4653 151.712 90.563 141.615 103.019 141.615C115.475 141.615 125.573 151.712 125.573 164.168C125.573 176.625 115.475 186.722 103.019 186.722C90.563 186.722 80.4653 176.625 80.4653 164.168ZM164.175 154.511C158.841 154.511 154.517 158.835 154.517 164.168C154.517 169.502 158.841 173.826 164.175 173.826C169.508 173.826 173.832 169.502 173.832 164.168C173.832 158.835 169.508 154.511 164.175 154.511ZM141.621 164.168C141.621 151.712 151.719 141.615 164.175 141.615C176.631 141.615 186.729 151.712 186.729 164.168C186.729 176.625 176.631 186.722 164.175 186.722C151.719 186.722 141.621 176.625 141.621 164.168Z" fill="#8E979F"/>
</svg>
