<svg width="50" height="27" viewBox="0 0 50 27" fill="none" xmlns="http://www.w3.org/2000/svg">
<path fill-rule="evenodd" clip-rule="evenodd" d="M0.243797 2.06136C0.243797 1.0068 1.16876 0.151917 2.30975 0.151917H47.6848C48.8258 0.151917 49.7507 1.0068 49.7507 2.06136C49.7507 3.11591 48.8258 3.9708 47.6848 3.9708H2.30975C1.16876 3.9708 0.243797 3.11591 0.243797 2.06136ZM0.243797 13.4992C0.243797 12.4446 1.16876 11.5897 2.30975 11.5897H47.6848C48.8258 11.5897 49.7507 12.4446 49.7507 13.4992C49.7507 14.5537 48.8258 15.4086 47.6848 15.4086H2.30975C1.16876 15.4086 0.243797 14.5537 0.243797 13.4992ZM0.243797 24.937C0.243797 23.8824 1.16876 23.0275 2.30975 23.0275H47.6848C48.8258 23.0275 49.7507 23.8824 49.7507 24.937C49.7507 25.9915 48.8258 26.8464 47.6848 26.8464H2.30975C1.16876 26.8464 0.243797 25.9915 0.243797 24.937Z" fill="white"/>
</svg>
