<svg width="98" height="98" viewBox="0 0 98 98" fill="none" xmlns="http://www.w3.org/2000/svg">
<path fill-rule="evenodd" clip-rule="evenodd" d="M37.9429 15.5518C39.2742 11.0174 43.2097 6.4286 49.0001 6.42828C54.7905 6.4286 58.726 11.0174 60.0573 15.5518C60.0696 15.5719 60.0954 15.6081 60.136 15.6502C60.1764 15.6921 60.2229 15.7315 60.2704 15.7642C60.3184 15.7973 60.3552 15.8152 60.3731 15.8225C63.8113 17.2384 67.8374 19.4862 70.981 23.5967C74.1473 27.7368 76.2204 33.5036 76.2207 41.597C76.2227 45.0754 76.381 47.889 76.662 50.2134C77.0382 53.3259 77.6344 55.5614 78.3699 57.342C79.4955 60.0671 80.9805 61.8654 83.0485 64.3695C83.3509 64.7357 83.666 65.1173 83.9941 65.5188C87.6584 70.0031 84.1844 76.2521 78.5507 76.2521H64.0048V76.5588C64.0048 80.539 62.4237 84.3562 59.6092 87.1707C56.7954 89.9845 52.9793 91.5655 49.0001 91.5662C45.0209 91.5655 41.2048 89.9845 38.391 87.1707C35.5765 84.3562 33.9954 80.539 33.9954 76.5588V76.2521H19.4495C13.8158 76.2521 10.3418 70.0031 14.0061 65.5188C14.3342 65.1173 14.6493 64.7357 14.9517 64.3695C17.0197 61.8654 18.5047 60.0671 19.6303 57.342C20.3658 55.5614 20.962 53.3259 21.3382 50.2134C21.6192 47.889 21.7775 45.0754 21.7795 41.597C21.7798 33.5036 23.8529 27.7368 27.0192 23.5967C30.1628 19.4862 34.1889 17.2384 37.6272 15.8225C37.6451 15.8152 37.6818 15.7973 37.7298 15.7642C37.7773 15.7315 37.8238 15.6921 37.8642 15.6502C37.9048 15.6081 37.9306 15.5719 37.9429 15.5518ZM49.0001 86.0549C51.5177 86.0542 53.9319 85.0538 55.7122 83.2736C57.493 81.4927 58.4935 79.0773 58.4935 76.5588V76.2521H39.5067V76.5588C39.5067 79.0773 40.5072 81.4927 42.2881 83.2736C44.0683 85.0538 46.4826 86.0542 49.0001 86.0549ZM61.1924 70.7408L61.2492 70.7402L61.3059 70.7408H78.5507C79.2956 70.7408 79.6844 70.3864 79.8506 70.0609C80.0228 69.7236 80.0079 69.3506 79.7262 69.0059C79.4285 68.6416 79.1295 68.2811 78.8308 67.9209C76.7772 65.4454 74.7392 62.9885 73.276 59.446C71.5944 55.3748 70.7143 50.0478 70.7094 41.5986C70.7094 40.0351 70.6223 38.5963 70.4619 37.271C69.8929 32.5701 68.4016 29.2961 66.6032 26.9447C65.9158 26.0459 65.1661 25.2586 64.3747 24.5642C62.4857 22.9065 60.3597 21.7773 58.2787 20.9204C56.79 20.3088 55.309 18.9437 54.7773 17.1319L54.7752 17.1251C53.8802 14.0456 51.5396 11.9399 49.0001 11.9396C46.4607 11.9399 44.1201 14.0456 43.225 17.1251L43.223 17.1319C42.6912 18.9437 41.2102 20.3088 39.7215 20.9204C37.6405 21.7773 35.5145 22.9065 33.6255 24.5642C32.8342 25.2586 32.0844 26.0459 31.397 26.9447C29.5987 29.2961 28.1073 32.5701 27.5383 37.271C27.3779 38.5963 27.2908 40.0351 27.2908 41.5986C27.2859 50.0478 26.4058 55.3748 24.7242 59.446C23.261 62.9885 21.223 65.4454 19.1695 67.9209C18.8707 68.2811 18.5717 68.6416 18.274 69.0059C17.9923 69.3506 17.9774 69.7236 18.1496 70.0609C18.3158 70.3864 18.7047 70.7408 19.4495 70.7408H36.6943L36.7511 70.7402L36.8078 70.7408H61.1924Z" fill="#8E979F"/>
</svg>
